<svg xmlns="http://www.w3.org/2000/svg" viewBox="0 0 100 100">
  <rect width="100" height="100" rx="18" fill="#118C4F"/>
  <g transform="translate(20,20) scale(0.206)" fill="#ffffff">
    <g transform="translate(-177.48,498.76) scale(0.1,-0.1)">
      <path d="M3035 4974 c-68 -26 -72 -26 -103 -10 -17 9 -52 16 -77 16 -124 0
-191 -97 -161 -231 8 -35 7 -36 -23 -31 -47 7 -132 -39 -213 -115 -114 -106
-160 -192 -124 -232 14 -15 29 -17 109 -14 50 3 97 5 102 5 6 1 24 -2 42 -6
28 -6 34 -3 54 23 20 27 24 29 39 16 47 -42 128 -55 197 -31 36 13 44 12 86
-6 45 -20 48 -24 67 -86 10 -36 18 -67 17 -68 -1 0 -39 3 -85 7 -89 9 -112 17
-156 58 l-28 26 16 -32 c21 -42 60 -71 105 -78 147 -22 238 -62 366 -158 87
-65 91 -83 33 -130 -44 -36 -255 -157 -273 -157 -5 0 -40 16 -76 34 -94 47
-165 53 -401 30 -168 -16 -195 -16 -230 -3 -49 17 -88 63 -70 81 10 10 19 9
45 -1 37 -16 268 -22 307 -8 42 14 70 47 70 83 0 48 -86 138 -166 175 -37 16
-83 48 -114 79 -59 59 -101 80 -161 80 -82 0 -145 -51 -151 -124 l-3 -38 -72
-1 c-88 -2 -110 -17 -174 -113 -62 -92 -66 -109 -35 -129 21 -14 30 -14 65 -4
32 9 72 10 183 0 l141 -12 51 -53 c47 -48 59 -55 123 -70 40 -9 91 -16 115
-16 l43 0 -25 -20 c-42 -33 -116 -53 -183 -48 -50 3 -72 10 -112 37 -47 32
-49 33 -25 7 42 -47 91 -66 170 -66 71 0 106 10 240 66 50 21 82 27 140 28
130 1 213 -59 240 -177 26 -107 42 -123 235 -233 156 -88 190 -121 181 -173
-9 -60 -28 -69 -220 -108 l-177 -37 -47 24 c-82 40 -142 51 -337 60 -104 5
-191 9 -192 9 -9 3 -73 65 -73 71 0 4 22 5 48 2 35 -3 51 0 60 11 11 12 20 13
50 4 49 -14 228 -15 242 -1 7 7 7 20 -1 45 -21 60 -66 113 -124 144 -48 25
-59 28 -84 18 -28 -10 -30 -9 -46 33 -26 69 -100 115 -160 100 -14 -4 -57 -36
-96 -71 -39 -36 -79 -65 -89 -65 -27 0 -65 -38 -94 -95 -45 -86 -29 -150 31
-127 42 16 200 22 216 8 8 -6 29 -33 47 -60 34 -51 31 -64 -15 -67 -11 -1 12
-5 51 -9 71 -8 351 -65 389 -79 16 -6 7 -14 -53 -46 -152 -80 -218 -174 -233
-334 -7 -80 -13 -102 -36 -135 -57 -80 -60 -81 -284 -84 l-199 -3 6 -27 c12
-48 35 -84 84 -131 26 -25 51 -56 54 -68 l7 -23 942 1 942 0 63 72 c66 75 85
104 96 149 l6 26 -438 5 c-464 5 -495 8 -593 57 -77 40 -113 115 -90 191 26
86 102 138 314 215 139 51 187 79 221 132 23 33 56 135 56 170 0 8 7 30 16 48
25 52 76 74 171 74 91 0 190 19 262 51 72 30 145 112 168 187 9 31 21 62 25
68 9 12 62 5 111 -15 36 -14 92 -14 118 0 15 8 34 7 69 -2 62 -16 90 -4 114
45 22 46 14 71 -35 117 -24 22 -39 46 -39 60 -1 41 -37 107 -67 122 -15 8 -47
18 -70 22 -35 5 -58 22 -145 104 -57 54 -114 104 -128 111 -48 26 -120 16
-201 -26 -90 -48 -119 -85 -119 -155 0 -54 -5 -57 -48 -32 -28 16 -32 16 -93
-7 -124 -45 -132 -52 -213 -172 -77 -114 -90 -154 -61 -178 24 -20 90 -24 139
-7 35 12 71 15 149 11 86 -5 107 -3 137 13 l35 18 58 -34 c33 -19 57 -40 57
-50 0 -26 -58 -89 -101 -111 -46 -24 -100 -25 -194 -5 -96 20 -144 19 -184 -6
l-34 -21 -150 68 c-267 121 -280 167 -87 294 81 53 156 124 180 171 22 43 78
92 155 138 31 18 65 47 76 65 20 33 25 81 9 91 -5 3 -10 -3 -10 -15 0 -45 -29
-78 -92 -108 -132 -62 -120 -63 -265 24 -202 121 -283 185 -283 226 0 10 14
33 31 52 30 35 31 35 61 20 22 -11 57 -16 125 -15 70 1 102 -3 126 -16 40 -21
132 -23 172 -3 27 14 33 13 74 -7 53 -27 137 -31 181 -8 37 19 60 63 60 114 0
56 -39 99 -105 115 -40 11 -51 18 -58 42 -23 70 -55 93 -149 109 -27 4 -45 16
-68 46 -37 46 -57 58 -121 73 -38 9 -53 20 -80 56 -64 85 -171 119 -264 84z"/>
    </g>
  </g>
</svg>
